<mxfile host="app.diagrams.net" agent="Mozilla/5.0 (Windows NT 10.0; Win64; x64) AppleWebKit/537.36 (KHTML, like Gecko) Chrome/127.0.0.0 Safari/537.36 OPR/113.0.0.0" version="24.7.17">
  <diagram name="Página-1" id="SpKvPy-5rXzOy9l-w7JC">
    <mxGraphModel dx="1741" dy="954" grid="1" gridSize="10" guides="1" tooltips="1" connect="1" arrows="1" fold="1" page="1" pageScale="1" pageWidth="827" pageHeight="1169" math="0" shadow="0">
      <root>
        <mxCell id="0" />
        <mxCell id="1" parent="0" />
        <mxCell id="PlM4_bl6OD74RqwkqfCk-5" value="Pizzaria" style="swimlane;childLayout=stackLayout;resizeParent=1;resizeParentMax=0;horizontal=0;startSize=20;horizontalStack=0;html=1;" vertex="1" parent="1">
          <mxGeometry x="140" y="70" width="1860" height="1140" as="geometry" />
        </mxCell>
        <mxCell id="PlM4_bl6OD74RqwkqfCk-6" value="Cliente" style="swimlane;startSize=20;horizontal=0;html=1;" vertex="1" parent="PlM4_bl6OD74RqwkqfCk-5">
          <mxGeometry x="20" width="1840" height="400" as="geometry" />
        </mxCell>
        <mxCell id="PlM4_bl6OD74RqwkqfCk-94" style="edgeStyle=orthogonalEdgeStyle;rounded=0;orthogonalLoop=1;jettySize=auto;html=1;entryX=0;entryY=0.5;entryDx=0;entryDy=0;" edge="1" parent="PlM4_bl6OD74RqwkqfCk-6" source="PlM4_bl6OD74RqwkqfCk-12" target="PlM4_bl6OD74RqwkqfCk-93">
          <mxGeometry relative="1" as="geometry" />
        </mxCell>
        <mxCell id="PlM4_bl6OD74RqwkqfCk-12" value="Fazer Pedido" style="rounded=1;whiteSpace=wrap;html=1;" vertex="1" parent="PlM4_bl6OD74RqwkqfCk-6">
          <mxGeometry x="110" y="60" width="120" height="60" as="geometry" />
        </mxCell>
        <mxCell id="PlM4_bl6OD74RqwkqfCk-30" style="edgeStyle=orthogonalEdgeStyle;rounded=0;orthogonalLoop=1;jettySize=auto;html=1;entryX=0;entryY=0.5;entryDx=0;entryDy=0;" edge="1" parent="PlM4_bl6OD74RqwkqfCk-6" source="PlM4_bl6OD74RqwkqfCk-28" target="PlM4_bl6OD74RqwkqfCk-12">
          <mxGeometry relative="1" as="geometry" />
        </mxCell>
        <mxCell id="PlM4_bl6OD74RqwkqfCk-28" value="" style="ellipse;whiteSpace=wrap;html=1;aspect=fixed;fillColor=#d5e8d4;strokeColor=#82b366;" vertex="1" parent="PlM4_bl6OD74RqwkqfCk-6">
          <mxGeometry x="30" y="75" width="30" height="30" as="geometry" />
        </mxCell>
        <mxCell id="PlM4_bl6OD74RqwkqfCk-34" style="edgeStyle=orthogonalEdgeStyle;rounded=0;orthogonalLoop=1;jettySize=auto;html=1;entryX=0;entryY=0.5;entryDx=0;entryDy=0;" edge="1" parent="PlM4_bl6OD74RqwkqfCk-6" source="PlM4_bl6OD74RqwkqfCk-31" target="PlM4_bl6OD74RqwkqfCk-33">
          <mxGeometry relative="1" as="geometry" />
        </mxCell>
        <mxCell id="PlM4_bl6OD74RqwkqfCk-31" value="Inserir Endereço" style="rounded=1;whiteSpace=wrap;html=1;" vertex="1" parent="PlM4_bl6OD74RqwkqfCk-6">
          <mxGeometry x="490" y="60" width="120" height="60" as="geometry" />
        </mxCell>
        <mxCell id="PlM4_bl6OD74RqwkqfCk-41" style="edgeStyle=orthogonalEdgeStyle;rounded=0;orthogonalLoop=1;jettySize=auto;html=1;entryX=0.5;entryY=1;entryDx=0;entryDy=0;" edge="1" parent="PlM4_bl6OD74RqwkqfCk-6" source="PlM4_bl6OD74RqwkqfCk-33" target="PlM4_bl6OD74RqwkqfCk-38">
          <mxGeometry relative="1" as="geometry" />
        </mxCell>
        <mxCell id="PlM4_bl6OD74RqwkqfCk-86" style="edgeStyle=orthogonalEdgeStyle;rounded=0;orthogonalLoop=1;jettySize=auto;html=1;" edge="1" parent="PlM4_bl6OD74RqwkqfCk-6" source="PlM4_bl6OD74RqwkqfCk-33" target="PlM4_bl6OD74RqwkqfCk-61">
          <mxGeometry relative="1" as="geometry" />
        </mxCell>
        <mxCell id="PlM4_bl6OD74RqwkqfCk-33" value="Endereço Valido?" style="rhombus;whiteSpace=wrap;html=1;fillColor=#fff2cc;strokeColor=#d6b656;" vertex="1" parent="PlM4_bl6OD74RqwkqfCk-6">
          <mxGeometry x="640" y="85" width="86" height="80" as="geometry" />
        </mxCell>
        <mxCell id="PlM4_bl6OD74RqwkqfCk-40" style="edgeStyle=orthogonalEdgeStyle;rounded=0;orthogonalLoop=1;jettySize=auto;html=1;entryX=0.5;entryY=0;entryDx=0;entryDy=0;" edge="1" parent="PlM4_bl6OD74RqwkqfCk-6" source="PlM4_bl6OD74RqwkqfCk-38" target="PlM4_bl6OD74RqwkqfCk-31">
          <mxGeometry relative="1" as="geometry">
            <Array as="points">
              <mxPoint x="670" y="10" />
              <mxPoint x="333" y="10" />
            </Array>
          </mxGeometry>
        </mxCell>
        <mxCell id="PlM4_bl6OD74RqwkqfCk-38" value="Endereço Invalido" style="rounded=1;whiteSpace=wrap;html=1;" vertex="1" parent="PlM4_bl6OD74RqwkqfCk-6">
          <mxGeometry x="810" y="45" width="120" height="60" as="geometry" />
        </mxCell>
        <mxCell id="PlM4_bl6OD74RqwkqfCk-58" value="Não" style="text;html=1;align=center;verticalAlign=middle;whiteSpace=wrap;rounded=0;" vertex="1" parent="PlM4_bl6OD74RqwkqfCk-6">
          <mxGeometry x="730" y="105" width="30" height="20" as="geometry" />
        </mxCell>
        <mxCell id="PlM4_bl6OD74RqwkqfCk-87" style="edgeStyle=orthogonalEdgeStyle;rounded=0;orthogonalLoop=1;jettySize=auto;html=1;" edge="1" parent="PlM4_bl6OD74RqwkqfCk-6" source="PlM4_bl6OD74RqwkqfCk-61" target="PlM4_bl6OD74RqwkqfCk-68">
          <mxGeometry relative="1" as="geometry" />
        </mxCell>
        <mxCell id="PlM4_bl6OD74RqwkqfCk-88" style="edgeStyle=orthogonalEdgeStyle;rounded=0;orthogonalLoop=1;jettySize=auto;html=1;entryX=1;entryY=0.5;entryDx=0;entryDy=0;" edge="1" parent="PlM4_bl6OD74RqwkqfCk-6" source="PlM4_bl6OD74RqwkqfCk-61" target="PlM4_bl6OD74RqwkqfCk-67">
          <mxGeometry relative="1" as="geometry" />
        </mxCell>
        <mxCell id="PlM4_bl6OD74RqwkqfCk-89" style="edgeStyle=orthogonalEdgeStyle;rounded=0;orthogonalLoop=1;jettySize=auto;html=1;entryX=1;entryY=0.5;entryDx=0;entryDy=0;" edge="1" parent="PlM4_bl6OD74RqwkqfCk-6" source="PlM4_bl6OD74RqwkqfCk-61" target="PlM4_bl6OD74RqwkqfCk-64">
          <mxGeometry relative="1" as="geometry" />
        </mxCell>
        <mxCell id="PlM4_bl6OD74RqwkqfCk-61" value="Escolher Metodo de Pagamento" style="rhombus;whiteSpace=wrap;html=1;fillColor=#fff2cc;strokeColor=#d6b656;" vertex="1" parent="PlM4_bl6OD74RqwkqfCk-6">
          <mxGeometry x="640" y="270" width="87" height="80" as="geometry" />
        </mxCell>
        <mxCell id="PlM4_bl6OD74RqwkqfCk-74" style="edgeStyle=orthogonalEdgeStyle;rounded=0;orthogonalLoop=1;jettySize=auto;html=1;entryX=1;entryY=0.5;entryDx=0;entryDy=0;" edge="1" parent="PlM4_bl6OD74RqwkqfCk-6" source="PlM4_bl6OD74RqwkqfCk-64" target="PlM4_bl6OD74RqwkqfCk-72">
          <mxGeometry relative="1" as="geometry" />
        </mxCell>
        <mxCell id="PlM4_bl6OD74RqwkqfCk-64" value="Pagar no Dinheiro" style="rounded=1;whiteSpace=wrap;html=1;" vertex="1" parent="PlM4_bl6OD74RqwkqfCk-6">
          <mxGeometry x="178" y="170" width="72" height="35" as="geometry" />
        </mxCell>
        <mxCell id="PlM4_bl6OD74RqwkqfCk-73" style="edgeStyle=orthogonalEdgeStyle;rounded=0;orthogonalLoop=1;jettySize=auto;html=1;entryX=1;entryY=0.5;entryDx=0;entryDy=0;" edge="1" parent="PlM4_bl6OD74RqwkqfCk-6" source="PlM4_bl6OD74RqwkqfCk-67" target="PlM4_bl6OD74RqwkqfCk-72">
          <mxGeometry relative="1" as="geometry" />
        </mxCell>
        <mxCell id="PlM4_bl6OD74RqwkqfCk-67" value="Pagar no Credito" style="rounded=1;whiteSpace=wrap;html=1;" vertex="1" parent="PlM4_bl6OD74RqwkqfCk-6">
          <mxGeometry x="178" y="222.5" width="72" height="35" as="geometry" />
        </mxCell>
        <mxCell id="PlM4_bl6OD74RqwkqfCk-75" style="edgeStyle=orthogonalEdgeStyle;rounded=0;orthogonalLoop=1;jettySize=auto;html=1;entryX=1;entryY=0.5;entryDx=0;entryDy=0;" edge="1" parent="PlM4_bl6OD74RqwkqfCk-6" source="PlM4_bl6OD74RqwkqfCk-68" target="PlM4_bl6OD74RqwkqfCk-72">
          <mxGeometry relative="1" as="geometry" />
        </mxCell>
        <mxCell id="PlM4_bl6OD74RqwkqfCk-68" value="Pagar no Debito" style="rounded=1;whiteSpace=wrap;html=1;" vertex="1" parent="PlM4_bl6OD74RqwkqfCk-6">
          <mxGeometry x="178" y="270" width="72" height="35" as="geometry" />
        </mxCell>
        <mxCell id="PlM4_bl6OD74RqwkqfCk-72" value="Pagamento Aprovado?" style="rhombus;whiteSpace=wrap;html=1;fillColor=#fff2cc;strokeColor=#d6b656;" vertex="1" parent="PlM4_bl6OD74RqwkqfCk-6">
          <mxGeometry x="50" y="200" width="80" height="80" as="geometry" />
        </mxCell>
        <mxCell id="PlM4_bl6OD74RqwkqfCk-81" value="Não" style="text;html=1;align=center;verticalAlign=middle;whiteSpace=wrap;rounded=0;" vertex="1" parent="PlM4_bl6OD74RqwkqfCk-6">
          <mxGeometry x="110" y="330" width="30" height="20" as="geometry" />
        </mxCell>
        <mxCell id="PlM4_bl6OD74RqwkqfCk-90" value="Sim" style="text;html=1;align=center;verticalAlign=middle;whiteSpace=wrap;rounded=0;" vertex="1" parent="PlM4_bl6OD74RqwkqfCk-6">
          <mxGeometry x="690" y="222.5" width="30" height="20" as="geometry" />
        </mxCell>
        <mxCell id="PlM4_bl6OD74RqwkqfCk-98" style="edgeStyle=orthogonalEdgeStyle;rounded=0;orthogonalLoop=1;jettySize=auto;html=1;" edge="1" parent="PlM4_bl6OD74RqwkqfCk-6" source="PlM4_bl6OD74RqwkqfCk-93" target="PlM4_bl6OD74RqwkqfCk-97">
          <mxGeometry relative="1" as="geometry" />
        </mxCell>
        <mxCell id="PlM4_bl6OD74RqwkqfCk-93" value="Quer Bebidas?" style="rhombus;whiteSpace=wrap;html=1;fillColor=#fff2cc;strokeColor=#d6b656;" vertex="1" parent="PlM4_bl6OD74RqwkqfCk-6">
          <mxGeometry x="260" y="65" width="50" height="50" as="geometry" />
        </mxCell>
        <mxCell id="PlM4_bl6OD74RqwkqfCk-99" style="edgeStyle=orthogonalEdgeStyle;rounded=0;orthogonalLoop=1;jettySize=auto;html=1;" edge="1" parent="PlM4_bl6OD74RqwkqfCk-6" source="PlM4_bl6OD74RqwkqfCk-97" target="PlM4_bl6OD74RqwkqfCk-31">
          <mxGeometry relative="1" as="geometry" />
        </mxCell>
        <mxCell id="PlM4_bl6OD74RqwkqfCk-97" value="Escolher Bebida" style="rounded=1;whiteSpace=wrap;html=1;" vertex="1" parent="PlM4_bl6OD74RqwkqfCk-6">
          <mxGeometry x="360" y="72.5" width="60" height="35" as="geometry" />
        </mxCell>
        <mxCell id="PlM4_bl6OD74RqwkqfCk-100" style="edgeStyle=orthogonalEdgeStyle;rounded=0;orthogonalLoop=1;jettySize=auto;html=1;entryX=0.558;entryY=1.017;entryDx=0;entryDy=0;entryPerimeter=0;" edge="1" parent="PlM4_bl6OD74RqwkqfCk-6" source="PlM4_bl6OD74RqwkqfCk-93" target="PlM4_bl6OD74RqwkqfCk-31">
          <mxGeometry relative="1" as="geometry">
            <Array as="points">
              <mxPoint x="285" y="140" />
              <mxPoint x="557" y="140" />
            </Array>
          </mxGeometry>
        </mxCell>
        <mxCell id="PlM4_bl6OD74RqwkqfCk-101" value="Não" style="text;html=1;align=center;verticalAlign=middle;whiteSpace=wrap;rounded=0;" vertex="1" parent="PlM4_bl6OD74RqwkqfCk-6">
          <mxGeometry x="300" y="115" width="30" height="20" as="geometry" />
        </mxCell>
        <mxCell id="PlM4_bl6OD74RqwkqfCk-102" value="Sim" style="text;html=1;align=center;verticalAlign=middle;whiteSpace=wrap;rounded=0;" vertex="1" parent="PlM4_bl6OD74RqwkqfCk-6">
          <mxGeometry x="310" y="65" width="30" height="20" as="geometry" />
        </mxCell>
        <mxCell id="PlM4_bl6OD74RqwkqfCk-125" style="edgeStyle=orthogonalEdgeStyle;rounded=0;orthogonalLoop=1;jettySize=auto;html=1;entryX=0;entryY=0.5;entryDx=0;entryDy=0;" edge="1" parent="PlM4_bl6OD74RqwkqfCk-6" source="PlM4_bl6OD74RqwkqfCk-121" target="PlM4_bl6OD74RqwkqfCk-124">
          <mxGeometry relative="1" as="geometry" />
        </mxCell>
        <mxCell id="PlM4_bl6OD74RqwkqfCk-121" value="Pagar o Entregador" style="rounded=1;whiteSpace=wrap;html=1;" vertex="1" parent="PlM4_bl6OD74RqwkqfCk-6">
          <mxGeometry x="1390" y="60" width="120" height="60" as="geometry" />
        </mxCell>
        <mxCell id="PlM4_bl6OD74RqwkqfCk-129" style="edgeStyle=orthogonalEdgeStyle;rounded=0;orthogonalLoop=1;jettySize=auto;html=1;entryX=0;entryY=0.5;entryDx=0;entryDy=0;" edge="1" parent="PlM4_bl6OD74RqwkqfCk-6" source="PlM4_bl6OD74RqwkqfCk-124" target="PlM4_bl6OD74RqwkqfCk-127">
          <mxGeometry relative="1" as="geometry" />
        </mxCell>
        <mxCell id="PlM4_bl6OD74RqwkqfCk-124" value="Receber o Pedido" style="rounded=1;whiteSpace=wrap;html=1;" vertex="1" parent="PlM4_bl6OD74RqwkqfCk-6">
          <mxGeometry x="1610" y="60" width="120" height="60" as="geometry" />
        </mxCell>
        <mxCell id="PlM4_bl6OD74RqwkqfCk-127" value="" style="ellipse;whiteSpace=wrap;html=1;aspect=fixed;fillColor=#f8cecc;strokeColor=#b85450;" vertex="1" parent="PlM4_bl6OD74RqwkqfCk-6">
          <mxGeometry x="1790" y="75" width="30" height="30" as="geometry" />
        </mxCell>
        <mxCell id="PlM4_bl6OD74RqwkqfCk-7" value="Sistema" style="swimlane;startSize=20;horizontal=0;html=1;" vertex="1" parent="PlM4_bl6OD74RqwkqfCk-5">
          <mxGeometry x="20" y="400" width="1840" height="320" as="geometry" />
        </mxCell>
        <mxCell id="PlM4_bl6OD74RqwkqfCk-104" style="edgeStyle=orthogonalEdgeStyle;rounded=0;orthogonalLoop=1;jettySize=auto;html=1;entryX=0;entryY=0.5;entryDx=0;entryDy=0;" edge="1" parent="PlM4_bl6OD74RqwkqfCk-7" source="PlM4_bl6OD74RqwkqfCk-13" target="PlM4_bl6OD74RqwkqfCk-103">
          <mxGeometry relative="1" as="geometry" />
        </mxCell>
        <mxCell id="PlM4_bl6OD74RqwkqfCk-13" value="Receber&amp;nbsp;&lt;span style=&quot;background-color: initial;&quot;&gt;Pedido&lt;/span&gt;" style="rounded=1;whiteSpace=wrap;html=1;" vertex="1" parent="PlM4_bl6OD74RqwkqfCk-7">
          <mxGeometry x="110" y="130" width="120" height="60" as="geometry" />
        </mxCell>
        <mxCell id="PlM4_bl6OD74RqwkqfCk-83" value="Sim" style="text;html=1;align=center;verticalAlign=middle;whiteSpace=wrap;rounded=0;" vertex="1" parent="PlM4_bl6OD74RqwkqfCk-7">
          <mxGeometry x="50" y="40" width="30" height="20" as="geometry" />
        </mxCell>
        <mxCell id="PlM4_bl6OD74RqwkqfCk-78" value="Pagamento Recusado" style="rounded=1;whiteSpace=wrap;html=1;" vertex="1" parent="PlM4_bl6OD74RqwkqfCk-7">
          <mxGeometry x="670" y="50" width="120" height="60" as="geometry" />
        </mxCell>
        <mxCell id="PlM4_bl6OD74RqwkqfCk-106" style="edgeStyle=orthogonalEdgeStyle;rounded=0;orthogonalLoop=1;jettySize=auto;html=1;" edge="1" parent="PlM4_bl6OD74RqwkqfCk-7" source="PlM4_bl6OD74RqwkqfCk-103" target="PlM4_bl6OD74RqwkqfCk-105">
          <mxGeometry relative="1" as="geometry" />
        </mxCell>
        <mxCell id="PlM4_bl6OD74RqwkqfCk-103" value="Descontar do Estoque Ingredientes Necessarios" style="rounded=1;whiteSpace=wrap;html=1;" vertex="1" parent="PlM4_bl6OD74RqwkqfCk-7">
          <mxGeometry x="300" y="130" width="120" height="60" as="geometry" />
        </mxCell>
        <mxCell id="PlM4_bl6OD74RqwkqfCk-107" style="edgeStyle=orthogonalEdgeStyle;rounded=0;orthogonalLoop=1;jettySize=auto;html=1;" edge="1" parent="PlM4_bl6OD74RqwkqfCk-7" source="PlM4_bl6OD74RqwkqfCk-105">
          <mxGeometry relative="1" as="geometry">
            <mxPoint x="550" y="370" as="targetPoint" />
          </mxGeometry>
        </mxCell>
        <mxCell id="PlM4_bl6OD74RqwkqfCk-105" value="Enviar Pedido para Cozinha" style="rounded=1;whiteSpace=wrap;html=1;" vertex="1" parent="PlM4_bl6OD74RqwkqfCk-7">
          <mxGeometry x="490" y="130" width="120" height="60" as="geometry" />
        </mxCell>
        <mxCell id="PlM4_bl6OD74RqwkqfCk-114" style="edgeStyle=orthogonalEdgeStyle;rounded=0;orthogonalLoop=1;jettySize=auto;html=1;" edge="1" parent="PlM4_bl6OD74RqwkqfCk-7" source="PlM4_bl6OD74RqwkqfCk-110">
          <mxGeometry relative="1" as="geometry">
            <mxPoint x="960" y="470" as="targetPoint" />
          </mxGeometry>
        </mxCell>
        <mxCell id="PlM4_bl6OD74RqwkqfCk-110" value="Notificar Pedido Pronto" style="rounded=1;whiteSpace=wrap;html=1;" vertex="1" parent="PlM4_bl6OD74RqwkqfCk-7">
          <mxGeometry x="900" y="130" width="120" height="60" as="geometry" />
        </mxCell>
        <mxCell id="PlM4_bl6OD74RqwkqfCk-8" value="Cozinha" style="swimlane;startSize=20;horizontal=0;html=1;" vertex="1" parent="PlM4_bl6OD74RqwkqfCk-5">
          <mxGeometry x="20" y="720" width="1840" height="250" as="geometry" />
        </mxCell>
        <mxCell id="PlM4_bl6OD74RqwkqfCk-108" style="edgeStyle=orthogonalEdgeStyle;rounded=0;orthogonalLoop=1;jettySize=auto;html=1;" edge="1" parent="PlM4_bl6OD74RqwkqfCk-8" source="PlM4_bl6OD74RqwkqfCk-14">
          <mxGeometry relative="1" as="geometry">
            <mxPoint x="700" y="80" as="targetPoint" />
          </mxGeometry>
        </mxCell>
        <mxCell id="PlM4_bl6OD74RqwkqfCk-14" value="Recebe o Pedido" style="rounded=1;whiteSpace=wrap;html=1;" vertex="1" parent="PlM4_bl6OD74RqwkqfCk-8">
          <mxGeometry x="490" y="50" width="120" height="60" as="geometry" />
        </mxCell>
        <mxCell id="PlM4_bl6OD74RqwkqfCk-109" value="Preparar Pedido" style="rounded=1;whiteSpace=wrap;html=1;" vertex="1" parent="PlM4_bl6OD74RqwkqfCk-8">
          <mxGeometry x="700" y="50" width="120" height="60" as="geometry" />
        </mxCell>
        <mxCell id="PlM4_bl6OD74RqwkqfCk-115" value="Enviar para Equipe de Entrega" style="rounded=1;whiteSpace=wrap;html=1;" vertex="1" parent="PlM4_bl6OD74RqwkqfCk-8">
          <mxGeometry x="900" y="150" width="120" height="60" as="geometry" />
        </mxCell>
        <mxCell id="PlM4_bl6OD74RqwkqfCk-82" style="edgeStyle=orthogonalEdgeStyle;rounded=0;orthogonalLoop=1;jettySize=auto;html=1;entryX=0;entryY=0.5;entryDx=0;entryDy=0;" edge="1" parent="PlM4_bl6OD74RqwkqfCk-5" source="PlM4_bl6OD74RqwkqfCk-72" target="PlM4_bl6OD74RqwkqfCk-13">
          <mxGeometry relative="1" as="geometry" />
        </mxCell>
        <mxCell id="PlM4_bl6OD74RqwkqfCk-79" style="edgeStyle=orthogonalEdgeStyle;rounded=0;orthogonalLoop=1;jettySize=auto;html=1;entryX=0;entryY=0.5;entryDx=0;entryDy=0;" edge="1" parent="PlM4_bl6OD74RqwkqfCk-5" source="PlM4_bl6OD74RqwkqfCk-72" target="PlM4_bl6OD74RqwkqfCk-78">
          <mxGeometry relative="1" as="geometry">
            <Array as="points">
              <mxPoint x="110" y="360" />
              <mxPoint x="360" y="360" />
              <mxPoint x="360" y="480" />
            </Array>
          </mxGeometry>
        </mxCell>
        <mxCell id="PlM4_bl6OD74RqwkqfCk-85" style="edgeStyle=orthogonalEdgeStyle;rounded=0;orthogonalLoop=1;jettySize=auto;html=1;entryX=1;entryY=0.5;entryDx=0;entryDy=0;" edge="1" parent="PlM4_bl6OD74RqwkqfCk-5" source="PlM4_bl6OD74RqwkqfCk-78" target="PlM4_bl6OD74RqwkqfCk-61">
          <mxGeometry relative="1" as="geometry">
            <Array as="points">
              <mxPoint x="840" y="480" />
              <mxPoint x="840" y="310" />
            </Array>
          </mxGeometry>
        </mxCell>
        <mxCell id="PlM4_bl6OD74RqwkqfCk-112" style="edgeStyle=orthogonalEdgeStyle;rounded=0;orthogonalLoop=1;jettySize=auto;html=1;entryX=0;entryY=0.5;entryDx=0;entryDy=0;" edge="1" parent="PlM4_bl6OD74RqwkqfCk-5" source="PlM4_bl6OD74RqwkqfCk-109" target="PlM4_bl6OD74RqwkqfCk-110">
          <mxGeometry relative="1" as="geometry">
            <Array as="points">
              <mxPoint x="780" y="560" />
            </Array>
          </mxGeometry>
        </mxCell>
        <mxCell id="PlM4_bl6OD74RqwkqfCk-116" style="edgeStyle=orthogonalEdgeStyle;rounded=0;orthogonalLoop=1;jettySize=auto;html=1;" edge="1" parent="PlM4_bl6OD74RqwkqfCk-5" source="PlM4_bl6OD74RqwkqfCk-115" target="PlM4_bl6OD74RqwkqfCk-15">
          <mxGeometry relative="1" as="geometry" />
        </mxCell>
        <mxCell id="PlM4_bl6OD74RqwkqfCk-122" style="edgeStyle=orthogonalEdgeStyle;rounded=0;orthogonalLoop=1;jettySize=auto;html=1;entryX=0.5;entryY=1;entryDx=0;entryDy=0;" edge="1" parent="PlM4_bl6OD74RqwkqfCk-5" source="PlM4_bl6OD74RqwkqfCk-120" target="PlM4_bl6OD74RqwkqfCk-121">
          <mxGeometry relative="1" as="geometry" />
        </mxCell>
        <mxCell id="PlM4_bl6OD74RqwkqfCk-126" style="edgeStyle=orthogonalEdgeStyle;rounded=0;orthogonalLoop=1;jettySize=auto;html=1;" edge="1" parent="PlM4_bl6OD74RqwkqfCk-5" source="PlM4_bl6OD74RqwkqfCk-120" target="PlM4_bl6OD74RqwkqfCk-124">
          <mxGeometry relative="1" as="geometry" />
        </mxCell>
        <mxCell id="PlM4_bl6OD74RqwkqfCk-10" value="Equipe de Entrega" style="swimlane;startSize=20;horizontal=0;html=1;whiteSpace=wrap;" vertex="1" parent="PlM4_bl6OD74RqwkqfCk-5">
          <mxGeometry x="20" y="970" width="1840" height="170" as="geometry" />
        </mxCell>
        <mxCell id="PlM4_bl6OD74RqwkqfCk-117" style="edgeStyle=orthogonalEdgeStyle;rounded=0;orthogonalLoop=1;jettySize=auto;html=1;" edge="1" parent="PlM4_bl6OD74RqwkqfCk-10" source="PlM4_bl6OD74RqwkqfCk-15">
          <mxGeometry relative="1" as="geometry">
            <mxPoint x="1180" y="99" as="targetPoint" />
          </mxGeometry>
        </mxCell>
        <mxCell id="PlM4_bl6OD74RqwkqfCk-15" value="Receber Pedido" style="rounded=1;whiteSpace=wrap;html=1;" vertex="1" parent="PlM4_bl6OD74RqwkqfCk-10">
          <mxGeometry x="900" y="69" width="120" height="60" as="geometry" />
        </mxCell>
        <mxCell id="PlM4_bl6OD74RqwkqfCk-119" style="edgeStyle=orthogonalEdgeStyle;rounded=0;orthogonalLoop=1;jettySize=auto;html=1;" edge="1" parent="PlM4_bl6OD74RqwkqfCk-10" source="PlM4_bl6OD74RqwkqfCk-118">
          <mxGeometry relative="1" as="geometry">
            <mxPoint x="1410" y="99" as="targetPoint" />
          </mxGeometry>
        </mxCell>
        <mxCell id="PlM4_bl6OD74RqwkqfCk-118" value="Entregar Pedido ao Cliente" style="rounded=1;whiteSpace=wrap;html=1;" vertex="1" parent="PlM4_bl6OD74RqwkqfCk-10">
          <mxGeometry x="1180" y="69" width="120" height="60" as="geometry" />
        </mxCell>
        <mxCell id="PlM4_bl6OD74RqwkqfCk-120" value="Pagamento em Dinheiro?" style="rhombus;whiteSpace=wrap;html=1;fillColor=#fff2cc;strokeColor=#d6b656;" vertex="1" parent="PlM4_bl6OD74RqwkqfCk-10">
          <mxGeometry x="1410" y="59" width="80" height="80" as="geometry" />
        </mxCell>
        <mxCell id="PlM4_bl6OD74RqwkqfCk-123" value="Sim" style="text;html=1;align=center;verticalAlign=middle;whiteSpace=wrap;rounded=0;" vertex="1" parent="PlM4_bl6OD74RqwkqfCk-10">
          <mxGeometry x="1450" y="30" width="30" height="19" as="geometry" />
        </mxCell>
        <mxCell id="PlM4_bl6OD74RqwkqfCk-130" value="Não" style="text;html=1;align=center;verticalAlign=middle;whiteSpace=wrap;rounded=0;" vertex="1" parent="PlM4_bl6OD74RqwkqfCk-10">
          <mxGeometry x="1630" y="75.5" width="30" height="19" as="geometry" />
        </mxCell>
      </root>
    </mxGraphModel>
  </diagram>
</mxfile>
